<svg width="512" height="512" viewBox="0 0 512 512" fill="none" xmlns="http://www.w3.org/2000/svg" xmlns:xlink="http://www.w3.org/1999/xlink" class=""><rect id="r4" width="512" height="512" x="0" y="0" rx="128" fill="url(#r5)" stroke="#FFFFFF" stroke-width="0" stroke-opacity="100%" paint-order="stroke"></rect><clipPath id="clip"><use xlink:href="#r4"></use></clipPath><defs><linearGradient id="r5" gradientUnits="userSpaceOnUse" gradientTransform="rotate(45)" style="transform-origin: center center;"><stop stop-color="#91EAE4"></stop><stop offset="1" stop-color="#7F7FD5"></stop></linearGradient><radialGradient id="r6" cx="0" cy="0" r="1" gradientUnits="userSpaceOnUse" gradientTransform="translate(256) rotate(90) scale(512)"><stop stop-color="white"></stop><stop offset="1" stop-color="white" stop-opacity="0"></stop></radialGradient></defs>


<svg height="352" stroke-miterlimit="10" version="1.1" viewBox="0 0 512 512" width="352" xml:space="preserve" xmlns="http://www.w3.org/2000/svg" xmlns:xlink="http://www.w3.org/1999/xlink" x="80" y="80" alignment-baseline="middle" style="color: rgb(255, 255, 255);">
<defs></defs>
<g id="Untitled">
<g opacity="1">
<g opacity="1">
<path d="M19.057 474.902L492.435 474.902C497.855 474.902 502.471 473.081 506.281 469.439C510.095 465.797 512 461.266 512 455.845C512 450.424 510.095 445.851 506.281 442.124C502.471 438.397 497.855 436.534 492.435 436.534L19.057 436.534C13.8058 436.534 9.31676 438.397 5.59005 442.124C1.86333 445.851 0 450.424 0 455.845C0 461.266 1.86333 465.797 5.59005 469.439C9.31676 473.081 13.8058 474.902 19.057 474.902Z" fill="#ffffff" fill-rule="nonzero" opacity="0" stroke="none"></path>
<path d="M19.057 342.011L492.435 342.011C497.855 342.011 502.471 340.148 506.281 336.421C510.095 332.694 512 328.12 512 322.699C512 317.279 510.095 312.748 506.281 309.106C502.471 305.464 497.855 303.643 492.435 303.643L19.057 303.643C13.8058 303.643 9.31676 305.464 5.59005 309.106C1.86333 312.748 0 317.279 0 322.699C0 328.12 1.86333 332.694 5.59005 336.421C9.31676 340.148 13.8058 342.011 19.057 342.011Z" fill="#ffffff" fill-rule="nonzero" opacity="0" stroke="none"></path>
<path d="M349.126 208.866L492.435 208.866C497.855 208.866 502.471 207.002 506.281 203.275C510.095 199.548 512 194.975 512 189.554C512 184.134 510.095 179.602 506.281 175.96C502.471 172.318 497.855 170.497 492.435 170.497L349.126 170.497C343.705 170.497 339.173 172.318 335.531 175.96C331.889 179.602 330.069 184.134 330.069 189.554C330.069 194.975 331.889 199.548 335.531 203.275C339.173 207.002 343.705 208.866 349.126 208.866Z" fill="#ffffff" fill-rule="nonzero" opacity="1" stroke="none"></path>
<path d="M349.126 75.7199L492.435 75.7199C497.855 75.7199 502.471 73.8565 506.281 70.1299C510.095 66.4032 512 61.8294 512 56.4089C512 51.1575 510.095 46.6684 506.281 42.9419C502.471 39.2151 497.855 37.3518 492.435 37.3518L349.126 37.3518C343.705 37.3518 339.173 39.2151 335.531 42.9419C331.889 46.6684 330.069 51.1575 330.069 56.4089C330.069 61.8294 331.889 66.4032 335.531 70.1299C339.173 73.8565 343.705 75.7199 349.126 75.7199Z" fill="#ffffff" fill-rule="nonzero" opacity="1" stroke="none"></path>
<path d="M19.057 474.902L162.366 474.902C167.787 474.902 172.403 473.039 176.214 469.312C180.026 465.585 181.931 461.012 181.931 455.591C181.931 450.17 180.026 445.639 176.214 441.997C172.403 438.355 167.787 436.534 162.366 436.534L19.057 436.534C13.6364 436.534 9.105 438.355 5.463 441.997C1.821 445.639 0 450.17 0 455.591C0 461.012 1.821 465.585 5.463 469.312C9.105 473.039 13.6364 474.902 19.057 474.902Z" fill="#ffffff" fill-rule="nonzero" opacity="1" stroke="none"></path>
<path d="M19.057 341.757L162.366 341.757C167.787 341.757 172.403 339.893 176.214 336.167C180.026 332.44 181.931 327.866 181.931 322.446C181.931 317.194 180.026 312.705 176.214 308.978C172.403 305.252 167.787 303.388 162.366 303.388L19.057 303.388C13.6364 303.388 9.105 305.252 5.463 308.978C1.821 312.705 0 317.194 0 322.446C0 327.866 1.821 332.44 5.463 336.167C9.105 339.893 13.6364 341.757 19.057 341.757Z" fill="#ffffff" fill-rule="nonzero" opacity="1" stroke="none"></path>
<path d="M225.636 225.636C236.477 225.636 246.387 223.349 255.365 218.775C264.343 214.201 271.499 207.722 276.836 199.337C282.172 190.952 284.839 181 284.839 169.481C284.839 153.219 279.885 140.217 269.975 130.478C260.066 120.737 247.572 115.867 232.496 115.867C221.994 115.867 213.185 118.619 206.07 124.125C198.956 129.63 194.128 137.888 191.587 148.899L195.653 149.408C196.499 134.331 200.141 121.118 206.579 109.768C213.016 98.4189 221.612 89.4413 232.369 82.8346C243.126 76.2285 255.534 72.6708 269.594 72.1627C274.507 71.8237 278.572 70.0875 281.79 66.9537C285.009 63.8199 286.619 59.8813 286.619 55.1384C286.619 49.2094 284.543 44.7205 280.393 41.6714C276.243 38.6222 270.949 37.0977 264.512 37.0977C245.54 37.0977 227.838 42.0525 211.407 51.9622C194.975 61.8718 181.72 75.3813 171.641 92.4904C161.561 109.599 156.522 128.91 156.522 150.424C156.522 173.292 163.256 191.545 176.722 205.181C190.189 218.818 206.494 225.636 225.636 225.636Z" fill="#ffffff" fill-rule="nonzero" opacity="1" stroke="none"></path>
<path d="M70.3842 225.636C81.0561 225.636 90.8809 223.349 99.859 218.775C108.837 214.201 115.994 207.722 121.33 199.337C126.666 190.952 129.334 181 129.334 169.481C129.334 153.219 124.379 140.217 114.469 130.478C104.56 120.737 92.0666 115.867 76.9904 115.867C66.3185 115.867 57.4675 118.619 50.4375 124.125C43.4078 129.63 38.5376 137.888 35.8273 148.899L39.8928 149.408C40.7398 134.331 44.3818 121.118 50.819 109.768C57.2561 98.4189 65.9375 89.4837 76.8637 82.9618C87.7894 76.4399 100.198 72.8403 114.089 72.1627C119.001 71.8237 123.066 70.0875 126.285 66.9537C129.503 63.8199 131.113 59.8813 131.113 55.1384C131.113 49.2094 128.995 44.7205 124.76 41.6714C120.525 38.6222 115.274 37.0977 109.007 37.0977C89.8647 37.0977 72.078 42.0525 55.6466 51.9622C39.2152 61.8718 26.0023 75.3813 16.0079 92.4904C6.01352 109.599 1.01633 128.91 1.01633 150.424C1.01633 173.292 7.70753 191.545 21.0898 205.181C34.4721 218.818 50.9037 225.636 70.3842 225.636Z" fill="#ffffff" fill-rule="nonzero" opacity="1" stroke="none"></path>
</g>
<g opacity="1">
<path d="M411.43 257.844C386.475 257.844 366.26 278.08 366.26 303.035C366.26 303.113 366.281 303.187 366.281 303.264L366.26 303.264L366.26 370.728L366.26 429.711C366.26 454.667 386.475 474.902 411.43 474.902C432.187 474.902 449.635 460.887 454.933 441.816C487.566 434.588 512 405.536 512 370.728C512 336.476 488.325 307.811 456.475 300.014C454.915 276.472 435.366 257.844 411.43 257.844Z" fill="#f5c2e7" fill-rule="nonzero" opacity="1" stroke="none"></path>
<path d="M310.037 257.844C334.993 257.844 355.207 278.08 355.207 303.035C355.207 303.113 355.187 303.187 355.187 303.264L355.207 303.264L355.207 370.728L355.207 429.711C355.207 454.667 334.993 474.902 310.037 474.902C289.281 474.902 271.832 460.887 266.534 441.816C233.901 434.588 209.467 405.536 209.467 370.728C209.467 336.476 233.143 307.811 264.992 300.014C266.552 276.472 286.101 257.844 310.037 257.844Z" fill="#f5c2e7" fill-rule="nonzero" opacity="1" stroke="none"></path>
</g>
</g>
</g>
</svg>
</svg>